<svg xmlns="http://www.w3.org/2000/svg" viewBox="0 0 1298.8 718.1"><defs><style>.cls-1{fill:#015e7d;}.cls-2{fill:#0588a5;}.cls-3{fill:#076b8c;}.cls-4{fill:#e6eaf0;}.cls-5{fill:#e20707;}.cls-6{fill:#f84d4d;}.cls-7{fill:#f75f5f;}.cls-8{fill:#009db7;}.cls-9{fill:#e20707;}.cls-10{fill:#60a5bd;}.cls-11{fill:#fff;}.cls-12{fill:#575a75;}.cls-13{fill:#c5e0ff;}.cls-14{fill:#ffbc47;}.cls-15{fill:#eba834;}.cls-16{fill:#db9d31;}.cls-17{fill:#ffd385;}.cls-18{fill:#00697a;}.cls-19{fill:#6eb0fa;}.cls-20{fill:#ffc57a;}.cls-21{fill:#52acc9;}.cls-22{fill:#e6a14a;}.cls-23{fill:#d3d9eb;}.cls-24{fill:#ffba61;}.cls-25{fill:#ffca85;}.cls-26{fill:#f7c1ce;}.cls-27{fill:#f75f5f;}.cls-28{fill:#2e3342;}.cls-29{fill:#e20707;}.cls-30{fill:#f6adad;}.cls-31{fill:#f7cfd8;}.cls-32{fill:#42434f;}.cls-33{fill:#393945;}.cls-34{fill:#4e505e;}.cls-35{fill:#00afcc;}.cls-36{fill:#e86161;}.cls-37{fill:#343540;}.cls-38{fill:#00788c;}.cls-39{fill:#353640;}.cls-40{fill:#efa3a3;}.cls-41{fill:#f7ce7d;}.cls-42{fill:#f2c163;}.cls-43{fill:#fcd890;}.cls-44{fill:#e20707;}.cls-45{fill:#d8ddeb;}</style></defs><g id="Layer_2" data-name="Layer 2"><g id="Layer_1-2" data-name="Layer 1"><polygon class="cls-1" points="793.7 52.9 821.9 32.8 802.7 25.7 793.7 52.9"/><polygon class="cls-2" points="823.3 38.8 849.9 0.1 804.9 33.3 823.3 38.8"/><polygon class="cls-2" points="849.9 0 775.7 18.7 793.5 24.9 849.9 0"/><polygon class="cls-3" points="849.9 0.1 804.9 33.5 793.7 52.9 793.3 24.7 849.9 0.1"/><ellipse class="cls-4" cx="649.4" cy="672.5" rx="649.4" ry="45.5"/><path class="cls-5" d="M303.3,355.3c8.6,14.1,30.7,16.6,40.3,30.5,5.2,8.2,2.2,16.8,1.1,25-.6,14.9-.4,31.6,6.9,47,3.8,6.9,10.1,13.2,12.6,20.4a90.3,90.3,0,0,1-23.2-2.9l-.5-.5c-6.2-6.4-10.9-14.6-10.9-23.7s3.2-16.9.3-25.1c-1.6-4.4-5-7.9-8.1-11.2s-6.3-7.1-7.9-11.6c-2.8-7.6-2.9-16.7-8.4-23-3.4-3.9-8.3-5.6-12.7-7.9a20.5,20.5,0,0,1-10.7-10.8c-2-4.3-3.3-8.8-5.2-13.1a36.4,36.4,0,0,0-8.3-11.5c-7.7-7-17.4-11.2-26.4-16.2s-16.5-10.1-21.2-18.4a4.1,4.1,0,0,1-.5-.9,10,10,0,0,1,3.7-2.9c14.5-4.4,26.9,15.5,40.4,20.6,15.9,4.4,28.7,1.9,33.4,21.2C299.4,345.4,300.2,350.6,303.3,355.3Z"/><path class="cls-6" d="M242.2,320.7c9,5,18.7,9.2,26.4,16.2a36.4,36.4,0,0,1,8.3,11.5c1.9,4.3,3.2,8.8,5.2,13.1a20.5,20.5,0,0,0,10.7,10.8c4.4,2.3,9.3,4,12.7,7.9,5.5,6.3,5.6,15.4,8.4,23,1.6,4.5,4.6,8.1,7.9,11.6s6.5,6.8,8.1,11.2c2.9,8.2-.4,16.8-.3,25.1s4.7,17.3,10.9,23.7l.5.5-1.3-.3c-18.8-5.2-36.8-16.6-35.5-35.4,2.8-8.9,6-16-6.7-22.9-19.6-13.6-44.5-21.1-41.4-45.7.6-11.1,6.6-27.3-5.6-37.3-5.3-3.3-11.6-3.8-17.1-7-10-4.9-17.7-17.6-13.3-24.7l.4-.6a4.1,4.1,0,0,0,.5.9C225.7,310.6,234,316.2,242.2,320.7Z"/><path class="cls-7" d="M242.2,320.7c9,5,18.7,9.2,26.4,16.2a36.4,36.4,0,0,1,8.3,11.5c1.9,4.3,3.2,8.8,5.2,13.1a20.5,20.5,0,0,0,10.7,10.8c4.4,2.3,9.3,4,12.7,7.9,5.5,6.3,5.6,15.4,8.4,23,1.6,4.5,4.6,8.1,7.9,11.6s6.5,6.8,8.1,11.2c2.9,8.2-.4,16.8-.3,25.1s4.7,17.3,10.9,23.7l.5.5-1.3-.3a49.6,49.6,0,0,1-4.1-5,36.7,36.7,0,0,1-5.5-10.8,33.3,33.3,0,0,1-.9-12.6c.4-4.4,1.3-8.7,1.2-13.1a20.2,20.2,0,0,0-4.7-13.3c-3-3.9-6.8-7.1-9.6-11.2a35.5,35.5,0,0,1-4.6-11.4c-1-4.2-1.8-8.5-3.6-12.4s-5.9-7.7-10.6-10-9.2-4.1-12.5-8.1-4.5-7.8-6-12.1-3.5-9.2-6.5-13.1a45.9,45.9,0,0,0-12-10.4c-13.4-8.7-32.5-14.6-40.2-29.5l.4-.6a4.1,4.1,0,0,0,.5.9C225.7,310.6,234,316.2,242.2,320.7Z"/><path class="cls-8" d="M621.3,359l12,43.6c3.1-4.2,6.6-8.1,10-12.1a78.6,78.6,0,0,0,9.3-12.2,46.5,46.5,0,0,0,5.4-14.4c1.1-4.9,1.9-9.9,4-14.5a37.4,37.4,0,0,1,6.8-9.8c5.8-5.9,12.8-10.4,18.6-16.2a36.5,36.5,0,0,0,7.5-9.9c2.2-4.4,3.3-9.4,4.3-14.3a122.7,122.7,0,0,1,3.2-14.6,48,48,0,0,1,5.7-11.3,58.5,58.5,0,0,1,18.8-16.9c18-10.4,39.3-11.6,59.6-11.6h3.6c-2-11.7-21.1-15.4-31.9-14.1-7.4.9-13.8,5.6-21,7.6-36.3,10.2-63.7,5.3-67.5,52-.5,5.2-.5,10.7-2.9,15.4C655.3,324.6,612.3,327.7,621.3,359Z"/><path class="cls-2" d="M676.9,438.1c32.6,1.4,54.3-33.3,25-60.1-18.5-12.7-4.8-28.6,9.3-37.2,6.9-4.2,16-7.5,17.9-15.5,2.2-17.4-23.8-30.6,6.4-48.7,17.1-10.2,56.4-4.8,54.8-30.5,0-.1-.1-.3-.1-.4-19.3-.1-39.3.3-57.1,8.5a62.5,62.5,0,0,0-20.8,15.2,50.6,50.6,0,0,0-7,10.5,55.4,55.4,0,0,0-4.1,13.3,145.7,145.7,0,0,1-3.1,14.6,36.1,36.1,0,0,1-5.8,11.6c-4.9,6.3-11.5,10.9-17.5,16a52,52,0,0,0-8.4,8.5,33,33,0,0,0-5.7,12.3c-1.3,4.8-2,9.8-3.6,14.6a44.8,44.8,0,0,1-6.9,12.7c-5.1,7-11.5,13.2-16.6,20.2C633.6,403.7,640.3,436.5,676.9,438.1Z"/><path class="cls-9" d="M633.3,402.6l.3,1.1c5.1-7,11.5-13.2,16.6-20.2a44.8,44.8,0,0,0,6.9-12.7c1.6-4.8,2.3-9.8,3.6-14.6a33,33,0,0,1,5.7-12.3,52,52,0,0,1,8.4-8.5c6-5.1,12.6-9.7,17.5-16a36.1,36.1,0,0,0,5.8-11.6,145.7,145.7,0,0,0,3.1-14.6,55.4,55.4,0,0,1,4.1-13.3,50.6,50.6,0,0,1,7-10.5,62.5,62.5,0,0,1,20.8-15.2c17.8-8.2,37.8-8.6,57.1-8.5a2.8,2.8,0,0,0-.1-.9h-3.6c-20.3,0-41.6,1.2-59.6,11.6a58.5,58.5,0,0,0-18.8,16.9,48,48,0,0,0-5.7,11.3,122.7,122.7,0,0,0-3.2,14.6c-1,4.9-2.1,9.9-4.3,14.3a36.5,36.5,0,0,1-7.5,9.9c-5.8,5.8-12.8,10.3-18.6,16.2a37.4,37.4,0,0,0-6.8,9.8c-2.1,4.6-2.9,9.6-4,14.5a46.5,46.5,0,0,1-5.4,14.4,78.6,78.6,0,0,1-9.3,12.2C639.9,394.5,636.4,398.4,633.3,402.6Z"/><path class="cls-10" d="M633.3,402.6l.3,1.1c5.1-7,11.5-13.2,16.6-20.2a44.8,44.8,0,0,0,6.9-12.7c1.6-4.8,2.3-9.8,3.6-14.6a33,33,0,0,1,5.7-12.3,52,52,0,0,1,8.4-8.5c6-5.1,12.6-9.7,17.5-16a36.1,36.1,0,0,0,5.8-11.6,145.7,145.7,0,0,0,3.1-14.6,55.4,55.4,0,0,1,4.1-13.3,50.6,50.6,0,0,1,7-10.5,62.5,62.5,0,0,1,20.8-15.2c17.8-8.2,37.8-8.6,57.1-8.5a2.8,2.8,0,0,0-.1-.9h-3.6c-20.3,0-41.6,1.2-59.6,11.6a58.5,58.5,0,0,0-18.8,16.9,48,48,0,0,0-5.7,11.3,122.7,122.7,0,0,0-3.2,14.6c-1,4.9-2.1,9.9-4.3,14.3a36.5,36.5,0,0,1-7.5,9.9c-5.8,5.8-12.8,10.3-18.6,16.2a37.4,37.4,0,0,0-6.8,9.8c-2.1,4.6-2.9,9.6-4,14.5a46.5,46.5,0,0,1-5.4,14.4,78.6,78.6,0,0,1-9.3,12.2C639.9,394.5,636.4,398.4,633.3,402.6Z"/><rect class="cls-11" x="330.6" y="98.5" width="334" height="567.06"/><path class="cls-12" d="M645.9,85.3H345.5a20.3,20.3,0,0,0-20.1,20.6V655.1c0,11.4,9,20.7,20.1,20.7H645.9c11.1,0,20.1-9.3,20.1-20.7V105.9A20.3,20.3,0,0,0,645.9,85.3Zm13.7,549.1c0,10.5-9,19-20.2,19h-287c-11.2,0-20.2-8.5-20.2-19V120c0-10.5,9-19,20.2-19H466a2.7,2.7,0,0,1,2.7,2.5c.6,13.5,12.6,24.4,27.2,24.4s26.6-10.9,27.2-24.4a2.6,2.6,0,0,1,2.7-2.5H639.4c11.1,0,20.2,8.5,20.2,19Z"/><path class="cls-11" d="M480.3,106.2a15.6,15.6,0,1,1,31.1,0,15.6,15.6,0,0,1-31.1,0Z"/><path class="cls-12" d="M484.3,106.2a11.6,11.6,0,1,1,11.6,11.5A11.6,11.6,0,0,1,484.3,106.2Z"/><path class="cls-11" d="M489.8,101a3.3,3.3,0,0,1,3.3-3.3,3.3,3.3,0,0,1,0,6.6A3.3,3.3,0,0,1,489.8,101Z"/><rect class="cls-13" x="384.5" y="141.8" width="216" height="18.85" rx="5"/><rect class="cls-13" x="349.8" y="142" width="32.9" height="18.66" rx="5"/><rect class="cls-13" x="611.2" y="142" width="32.9" height="18.66" rx="5"/><path class="cls-14" d="M344.3,60.8h1.4a5.1,5.1,0,0,1,5.1,5.1v7.7a0,0,0,0,1,0,0H339.2a0,0,0,0,1,0,0V65.9a5.1,5.1,0,0,1,5.1-5.1Z"/><circle class="cls-15" cx="344.3" cy="155" r="20.4" transform="translate(136.1 470) rotate(-80.8)"/><path class="cls-16" d="M353.2,136.6a20.5,20.5,0,0,1-23.5,32.7,20.1,20.1,0,0,0,14.6,6.1,20.4,20.4,0,0,0,8.9-38.8Z"/><path class="cls-14" d="M399.8,155.6c0,3.7-3.4,6.7-7.6,6.7H296.3c-4.2,0-7.6-3-7.6-6.7a6.5,6.5,0,0,1,2.2-4.7,8.3,8.3,0,0,1,5.4-1.9,6.4,6.4,0,0,0,2-.3,8.4,8.4,0,0,0,5.3-4.3,8.1,8.1,0,0,0,.7-3.5V110.4a40,40,0,0,1,40.3-39.9c22,.1,39.6,18.4,39.6,40.4v30a8.2,8.2,0,0,0,.8,3.5,8,8,0,0,0,5.2,4.3,6.4,6.4,0,0,0,2,.3C396.4,149,399.8,151.9,399.8,155.6Z"/><path class="cls-15" d="M392.2,149a6.4,6.4,0,0,1-2-.3,8,8,0,0,1-5.2-4.3,8.2,8.2,0,0,1-.8-3.5v-30c0-22-17.6-40.3-39.6-40.4a27.5,27.5,0,0,0-4.1.2c20.4,1.8,36.3,19.3,36.3,40.2v30a8.2,8.2,0,0,0,.8,3.5,8,8,0,0,0,5.2,4.3,7.6,7.6,0,0,0,2.1.3c4.1,0,7.5,2.9,7.5,6.6s-3.4,6.7-7.5,6.7h7.3c4.2,0,7.6-3,7.6-6.7S396.4,149,392.2,149Z"/><path class="cls-15" d="M390.2,148.7H298.3a8.4,8.4,0,0,0,5.3-4.3H385A8,8,0,0,0,390.2,148.7Z"/><path class="cls-17" d="M326.4,79.7c-16.1,8.7-18.2,28.4-17.6,44.8.1,3,4.7,3,4.6,0-.5-14.7.7-32.9,15.4-40.8C331.4,82.3,329,78.3,326.4,79.7Z"/><path class="cls-17" d="M308.6,132.2V137c0,2.9,4.6,2.9,4.7,0v-4.8C313.3,129.2,308.7,129.2,308.6,132.2Z"/><rect class="cls-2" x="395.2" y="357.7" width="196.5" height="67.21" rx="20.9"/><path class="cls-18" d="M574.5,358.1a20.6,20.6,0,0,1,3,10.8h0a46.4,46.4,0,0,1-46.3,46.3H401.9a24.5,24.5,0,0,1-3.8-.4,21,21,0,0,0,18,10.1H570.7A20.8,20.8,0,0,0,591.6,404V378.6A20.8,20.8,0,0,0,574.5,358.1Z"/><path class="cls-11" d="M409.4,394.8l5.5-.3a3.6,3.6,0,0,0,.7,2,2.8,2.8,0,0,0,2.5,1.1,3.1,3.1,0,0,0,1.9-.5,1.7,1.7,0,0,0,.1-2.7,8.5,8.5,0,0,0-3-1.1,12.5,12.5,0,0,1-5.4-2.2,4.6,4.6,0,0,1-1.6-3.6,5,5,0,0,1,.8-2.7,5.6,5.6,0,0,1,2.5-2,11.5,11.5,0,0,1,4.6-.8,9.5,9.5,0,0,1,5.5,1.4,5.9,5.9,0,0,1,2.2,4.2l-5.4.3a3.2,3.2,0,0,0-1-1.8,2.5,2.5,0,0,0-1.9-.6,2.4,2.4,0,0,0-1.5.4,1.6,1.6,0,0,0-.5,1.1c0,.3.2.5.4.8l2,.7a20.9,20.9,0,0,1,5.4,1.6,5.6,5.6,0,0,1,2.4,2.1,6,6,0,0,1,.7,2.7,5.6,5.6,0,0,1-1,3.3,6.3,6.3,0,0,1-2.8,2.3,11.3,11.3,0,0,1-4.5.8c-3.1,0-5.3-.6-6.5-1.8A7.1,7.1,0,0,1,409.4,394.8Z"/><path class="cls-11" d="M441.3,382.4h5.8v11.1a8.1,8.1,0,0,1-.6,3.1,7.4,7.4,0,0,1-3.9,4.1,11.6,11.6,0,0,1-4,.6l-3-.2a10.7,10.7,0,0,1-2.7-.7,7.5,7.5,0,0,1-1.9-1.7,6.7,6.7,0,0,1-1.3-2.1,13.2,13.2,0,0,1-.5-3.1V382.4H435v11.3a3.2,3.2,0,0,0,.8,2.4,3,3,0,0,0,2.3.9,3.2,3.2,0,0,0,2.4-.9,3.5,3.5,0,0,0,.8-2.4Z"/><path class="cls-11" d="M450.9,382.4h10.8a5.8,5.8,0,0,1,4.1,1.3,4.2,4.2,0,0,1,1.4,3.3,4,4,0,0,1-1,2.8,3.7,3.7,0,0,1-2,1.3,5.4,5.4,0,0,1,3,1.6,4.9,4.9,0,0,1,.9,3,4.6,4.6,0,0,1-.7,2.6,3.9,3.9,0,0,1-1.8,1.8,5.3,5.3,0,0,1-2.2.6l-2.6.3h-9.9Zm5.8,7.3h2.5a3.1,3.1,0,0,0,1.9-.5,1.9,1.9,0,0,0,.5-1.3,1.7,1.7,0,0,0-.5-1.3,3.1,3.1,0,0,0-1.9-.5h-2.5Zm0,7.3h2.9a3.6,3.6,0,0,0,2.1-.5,2,2,0,0,0,.6-1.5,1.6,1.6,0,0,0-.6-1.3,3.6,3.6,0,0,0-2.1-.5h-2.9Z"/><path class="cls-11" d="M470.1,394.8l5.5-.3a4.7,4.7,0,0,0,.7,2,3,3,0,0,0,2.6,1.1,3.6,3.6,0,0,0,1.9-.5,2,2,0,0,0,.6-1.4,1.8,1.8,0,0,0-.6-1.3,7.8,7.8,0,0,0-3-1.1,12.5,12.5,0,0,1-5.4-2.2,5,5,0,0,1-1.6-3.6,4.4,4.4,0,0,1,.9-2.7,4.7,4.7,0,0,1,2.5-2,11,11,0,0,1,4.5-.8,9.5,9.5,0,0,1,5.5,1.4,5.6,5.6,0,0,1,2.2,4.2l-5.4.3a3.8,3.8,0,0,0-.9-1.8,2.9,2.9,0,0,0-1.9-.6,2.1,2.1,0,0,0-1.5.4,1.4,1.4,0,0,0-.6,1.1c0,.3.2.5.5.8a6.9,6.9,0,0,0,1.9.7,20.9,20.9,0,0,1,5.4,1.6,5.6,5.6,0,0,1,2.4,2.1,5,5,0,0,1,.7,2.7,5.6,5.6,0,0,1-1,3.3,6.1,6.1,0,0,1-2.7,2.3,11.7,11.7,0,0,1-4.5.8q-4.8,0-6.6-1.8A7.6,7.6,0,0,1,470.1,394.8Z"/><path class="cls-11" d="M502.3,393.4l5.1,1.5a10.3,10.3,0,0,1-1.6,3.5,8,8,0,0,1-2.7,2.2,10.2,10.2,0,0,1-4.2.7,11.6,11.6,0,0,1-4.9-.9,8.3,8.3,0,0,1-3.4-3.1,10.9,10.9,0,0,1-1.4-5.7,9.9,9.9,0,0,1,2.5-7.1,9.6,9.6,0,0,1,7-2.5,9,9,0,0,1,5.5,1.5,8.8,8.8,0,0,1,3,4.3l-5.1,1.2a5.3,5.3,0,0,0-.6-1.3,3.5,3.5,0,0,0-1.1-1,4.2,4.2,0,0,0-1.6-.4,3.5,3.5,0,0,0-3,1.6,7,7,0,0,0-.8,3.7c0,2.1.3,3.5,1,4.2a3.1,3.1,0,0,0,2.6,1.2,3.3,3.3,0,0,0,2.5-.9A5.6,5.6,0,0,0,502.3,393.4Z"/><path class="cls-11" d="M510.2,401V382.4h9.6a14.4,14.4,0,0,1,4.1.4,4.4,4.4,0,0,1,2.3,1.7,4.9,4.9,0,0,1,.9,3,5.4,5.4,0,0,1-.7,2.7,4.5,4.5,0,0,1-1.8,1.8,7.6,7.6,0,0,1-2,.8l1.5.6.9,1a12.3,12.3,0,0,1,.8,1.2l2.8,5.4h-6.5l-3.1-5.7a3.4,3.4,0,0,0-1.1-1.4,2.2,2.2,0,0,0-1.4-.5H516V401Zm5.8-11.1h2.5l1.5-.3a1.1,1.1,0,0,0,.9-.5,1.8,1.8,0,0,0-.2-2.5,3.6,3.6,0,0,0-2.1-.5H516Z"/><path class="cls-11" d="M530.6,382.4h5.8V401h-5.8Z"/><path class="cls-11" d="M540.6,382.4h10.7a6,6,0,0,1,4.2,1.3,4.5,4.5,0,0,1,1.4,3.3,4,4,0,0,1-1,2.8,4.1,4.1,0,0,1-2,1.3,4.8,4.8,0,0,1,2.9,1.6,4.4,4.4,0,0,1,1,3,4.6,4.6,0,0,1-.7,2.6,4.5,4.5,0,0,1-1.8,1.8,5.8,5.8,0,0,1-2.2.6l-2.6.3h-9.9Zm5.8,7.3h2.5a2.6,2.6,0,0,0,1.8-.5,1.6,1.6,0,0,0,.6-1.3,1.5,1.5,0,0,0-.6-1.3,2.6,2.6,0,0,0-1.8-.5h-2.5Zm0,7.3h2.9a3.6,3.6,0,0,0,2.1-.5,2,2,0,0,0,.6-1.5,1.6,1.6,0,0,0-.6-1.3,3.6,3.6,0,0,0-2.1-.5h-2.9Z"/><path class="cls-11" d="M560.8,382.4h15.4v3.9h-9.7v3h9v3.8h-9v3.7h10V401H560.8Z"/><rect class="cls-13" x="353.9" y="522.3" width="280.9" height="3.92" rx="1.7"/><rect class="cls-13" x="353.9" y="539.6" width="194.1" height="3.92" rx="1.7"/><rect class="cls-13" x="562.1" y="539.6" width="71.6" height="3.92" rx="1.7"/><rect class="cls-13" x="462" y="558" width="45.8" height="3.92" rx="1.7"/><rect class="cls-13" x="353.4" y="558" width="94.2" height="3.92" rx="1.7"/><rect class="cls-13" x="519.3" y="558" width="114.6" height="3.92" rx="1.7"/><rect class="cls-13" x="353.9" y="575.4" width="280.9" height="3.92" rx="1.7"/><rect class="cls-13" x="353.9" y="592.7" width="194.1" height="3.92" rx="1.7"/><rect class="cls-13" x="562.1" y="592.7" width="71.6" height="3.92" rx="1.7"/><rect class="cls-13" x="462" y="611.1" width="45.8" height="3.92" rx="1.7"/><rect class="cls-13" x="353.4" y="611.1" width="94.2" height="3.92" rx="1.7"/><rect class="cls-13" x="519.3" y="611.1" width="114.6" height="3.92" rx="1.7"/><rect class="cls-13" x="364.5" y="197" width="265.2" height="136.2"/><path class="cls-11" d="M370.2,328.1a1.9,1.9,0,0,1,1.9-2,2,2,0,1,1,0,3.9A1.9,1.9,0,0,1,370.2,328.1Z"/><rect class="cls-11" x="378.8" y="326.7" width="243.4" height="2.8" rx="1.2"/><rect class="cls-19" x="362.8" y="460.6" width="47.4" height="41.14" rx="5.6"/><path class="cls-11" d="M383.3,487.9a1.5,1.5,0,0,1-2.2-1.3V475.7a1.6,1.6,0,0,1,2.2-1.4l6.1,2.9,5.4,2.5a1.5,1.5,0,0,1,.1,2.7l-5.4,2.6Z"/><path class="cls-11" d="M386.4,494.2a13.5,13.5,0,1,1,13.5-13.4A13.4,13.4,0,0,1,386.4,494.2Zm0-25.9a12.5,12.5,0,1,0,12.5,12.5A12.5,12.5,0,0,0,386.4,468.3Z"/><rect class="cls-20" x="434.7" y="460.6" width="47.4" height="41.14" rx="5.6"/><path class="cls-11" d="M455.2,487.9a1.5,1.5,0,0,1-2.2-1.3V475.7a1.5,1.5,0,0,1,2.1-1.4l6.2,2.9,5.4,2.5a1.5,1.5,0,0,1,.1,2.7l-5.4,2.6Z"/><path class="cls-11" d="M458.3,494.2a13.5,13.5,0,1,1,13.5-13.4A13.5,13.5,0,0,1,458.3,494.2Zm0-25.9a12.5,12.5,0,1,0,12.5,12.5A12.5,12.5,0,0,0,458.3,468.3Z"/><rect class="cls-21" x="506.5" y="460.6" width="47.4" height="41.14" rx="5.6"/><path class="cls-11" d="M527.1,487.9a1.5,1.5,0,0,1-2.2-1.3V475.7a1.5,1.5,0,0,1,2.1-1.4l6.2,2.9,5.4,2.5a1.5,1.5,0,0,1,0,2.7l-5.3,2.6Z"/><path class="cls-11" d="M530.2,494.2a13.5,13.5,0,1,1,13.4-13.4A13.5,13.5,0,0,1,530.2,494.2Zm0-25.9a12.5,12.5,0,1,0,12.5,12.5A12.5,12.5,0,0,0,530.2,468.3Z"/><path class="cls-6" d="M625.6,488.3c-.6-8.9,6.5-9.6-2.3-32.3l-1.2-3.9a4.3,4.3,0,0,0-5.4-2.8,4.2,4.2,0,0,0-2.7,5.3l-.9-2.7a4.2,4.2,0,0,0-5.3-2.7h0a4.2,4.2,0,0,0-3,4.7l-.3-1.1a4.4,4.4,0,0,0-5.3-2.8h-.1a4.4,4.4,0,0,0-2.7,2.6l-3.4-11a5.1,5.1,0,0,0-6.4-3.5,5.3,5.3,0,0,0-3.3,6.5l6.8,21.6,2.4,7.7-6.8-3.7-3-1.7a5.1,5.1,0,0,0-3.8-.5h-.1a4.3,4.3,0,0,0-2.7,2.1,4.2,4.2,0,0,0-.5,2.9h0a4.1,4.1,0,0,0,.5,1.8,4.5,4.5,0,0,0,1.8,1.8l10,5.7h0c4.3,3.7,8.5,7.7,12,13.8a2,2,0,0,0-1.3,2.6l1.2,4a2.1,2.1,0,0,0,2.6,1.4l25.7-8.1a2.1,2.1,0,0,0,1.4-2.6l-1.2-4A2.1,2.1,0,0,0,625.6,488.3Z"/><path class="cls-22" d="M672.7,467.8l151.9-83.2a16.5,16.5,0,0,1,21.5,0l152.2,83.2a16.4,16.4,0,0,1,5.8,12.6V649a16.6,16.6,0,0,1-16.6,16.6h-304A16.6,16.6,0,0,1,666.9,649V480.4A16.7,16.7,0,0,1,672.7,467.8Z"/><path class="cls-11" d="M747.8,603.4H910.4a2.8,2.8,0,0,0,2.9-2.8V398.2a2.9,2.9,0,0,0-2.9-2.9H780.7a3.2,3.2,0,0,0-2.1.8L745.7,429a3.2,3.2,0,0,0-.8,2.1V600.6A2.8,2.8,0,0,0,747.8,603.4Z"/><polygon class="cls-23" points="744.9 429.9 779.5 395.3 779.5 429.9 744.9 429.9"/><path class="cls-23" d="M856.4,520.8H761.1a1,1,0,0,1-1.1-1h0a1.1,1.1,0,0,1,1.1-1h95.3a1.1,1.1,0,0,1,1,1h0A1,1,0,0,1,856.4,520.8Z"/><path class="cls-23" d="M897.1,527.5h-136a1,1,0,0,1-1.1-1h0a1.1,1.1,0,0,1,1.1-1h136a1,1,0,0,1,1,1h0A.9.9,0,0,1,897.1,527.5Z"/><path class="cls-23" d="M896.8,520.8H867.3a1,1,0,0,1-1-1h0a1.1,1.1,0,0,1,1-1h29.5a1.1,1.1,0,0,1,1,1h0A1,1,0,0,1,896.8,520.8Z"/><path class="cls-23" d="M815.7,534.4H760.9a1,1,0,0,1-.9-.9h0a1,1,0,0,1,.9-.9h54.8a.9.9,0,0,1,.9.9h0A.9.9,0,0,1,815.7,534.4Z"/><path class="cls-23" d="M896.7,534.8H823.8a1.1,1.1,0,0,1-1.1-1.1h0a1.1,1.1,0,0,1,1.1-1.1h72.9a1.1,1.1,0,0,1,1.1,1.1h0A1.1,1.1,0,0,1,896.7,534.8Z"/><path class="cls-23" d="M856.4,540.9H761.1a1,1,0,0,1-1.1-1h0a1,1,0,0,1,1.1-1h95.3a1,1,0,0,1,1,1h0A1,1,0,0,1,856.4,540.9Z"/><path class="cls-23" d="M897.1,547.6h-136a1,1,0,0,1-1.1-1h0a1.1,1.1,0,0,1,1.1-1h136a1,1,0,0,1,1,1h0A.9.9,0,0,1,897.1,547.6Z"/><path class="cls-23" d="M896.8,540.9H867.3a1,1,0,0,1-1-1h0a1,1,0,0,1,1-1h29.5a1,1,0,0,1,1,1h0A1,1,0,0,1,896.8,540.9Z"/><path class="cls-23" d="M815.7,554.5H760.9a1,1,0,0,1-.9-.9h0a1,1,0,0,1,.9-.9h54.8a.9.9,0,0,1,.9.9h0A.9.9,0,0,1,815.7,554.5Z"/><path class="cls-23" d="M896.7,554.9H823.8a1.1,1.1,0,0,1-1.1-1.1h0a1.1,1.1,0,0,1,1.1-1.1h72.9a1.1,1.1,0,0,1,1.1,1.1h0A1.1,1.1,0,0,1,896.7,554.9Z"/><path class="cls-24" d="M1004.1,477.6v188A12.1,12.1,0,0,1,992,677.7H678.7a12.1,12.1,0,0,1-12.1-12.1v-190a12.2,12.2,0,0,1,19.1-10l128.7,90.3,14.1,9.9a12,12,0,0,0,13.8,0l16.5-11.3,126.3-86.9A12.2,12.2,0,0,1,1004.1,477.6Z"/><polygon class="cls-22" points="804.1 548.7 666.6 629.1 666.6 654.3 814.4 555.9 804.1 548.7"/><polygon class="cls-22" points="866.4 549.2 1004.1 630.6 1004.1 655.8 855 556.7 866.4 549.2"/><path class="cls-24" d="M1004.1,639.1v26.5A12.1,12.1,0,0,1,992,677.7H678.7a12.1,12.1,0,0,1-12.1-12.1V637.9c28.5-16,125.9-73.7,158.3-92.9a20.7,20.7,0,0,1,21.2,0Z"/><path class="cls-25" d="M846.1,545a20.6,20.6,0,0,0-20.8-.2l115.4,68.7a46.5,46.5,0,0,1,22.7,40h0a12.1,12.1,0,0,1-12.1,12.1H666.6a12.1,12.1,0,0,0,12.1,12.1H992a12.1,12.1,0,0,0,12.1-12.1V639.1Z"/><path class="cls-2" d="M865,493.7c-2.6,3.7-6.6,6.9-11.8,9.5s-11.8,4-19.6,4a51.7,51.7,0,0,1-20-3.8,28.1,28.1,0,0,1-13.7-11.7c-3.2-5.2-4.8-11.5-4.8-18.8a41.5,41.5,0,0,1,4.8-19.6,33.5,33.5,0,0,1,13.4-14,37.5,37.5,0,0,1,19.1-4.9,36,36,0,0,1,16.7,3.9,26.5,26.5,0,0,1,15.2,24.3,27.6,27.6,0,0,1-3,12.4,24.4,24.4,0,0,1-8.1,9.5c-2.5,1.8-4.6,2.8-6.2,2.8a3.1,3.1,0,0,1-2.2-.9,2.9,2.9,0,0,1-.9-2.1c0-.4.5-2.7,1.4-6.9l6.4-30h-8l-1.5,7a16.5,16.5,0,0,0-6.1-6.2,14.1,14.1,0,0,0-7.4-2.1,19,19,0,0,0-10.5,3.6,27.5,27.5,0,0,0-9,10.7,31.6,31.6,0,0,0-3.7,14.2,23.3,23.3,0,0,0,2.4,10.6,16,16,0,0,0,6.1,7.1,14,14,0,0,0,7.7,2.4,14.2,14.2,0,0,0,7.2-2.1,23.3,23.3,0,0,0,6.5-5.3,16,16,0,0,0,.8,3.8,7.3,7.3,0,0,0,2.8,2.7,12.1,12.1,0,0,0,5,.9c6.4,0,12.4-3,17.8-9a33.9,33.9,0,0,0,4.7-39.8,32.3,32.3,0,0,0-13.9-13.5,42.8,42.8,0,0,0-19.8-4.5c-9.6,0-17.7,2.1-24.3,6.4A41.7,41.7,0,0,0,793,452.8a49.6,49.6,0,0,0-4.5,20.8,44.3,44.3,0,0,0,3.8,18.2,33.5,33.5,0,0,0,8.9,11.8,38,38,0,0,0,14.2,7.6,62.7,62.7,0,0,0,18.3,2.6,52.6,52.6,0,0,0,18.4-2.9,41,41,0,0,0,13.2-7.7,34,34,0,0,0,7.8-9.5Zm-27-19.1a20.6,20.6,0,0,1-4.1,7.5,18.2,18.2,0,0,1-5.3,4.5,11,11,0,0,1-5.3,1.5,8.6,8.6,0,0,1-6.6-3.4c-1.9-2.3-2.9-5.5-2.9-9.5a30.7,30.7,0,0,1,1.4-8.5,28.3,28.3,0,0,1,3.8-7.8,16,16,0,0,1,4.9-4.6,10.5,10.5,0,0,1,5.4-1.5,9.2,9.2,0,0,1,7.3,3.4c2,2.2,3,5.3,3,9.4A25.9,25.9,0,0,1,838,474.6Z"/><path class="cls-23" d="M904.8,421.6H873.1a1.3,1.3,0,0,1-1.3-1.3h0a1.3,1.3,0,0,1,1.3-1.3h31.7a1.3,1.3,0,0,1,1.3,1.3h0A1.3,1.3,0,0,1,904.8,421.6Z"/><path class="cls-23" d="M887.2,427.5H873.1a1.3,1.3,0,0,1-1.3-1.3h0a1.3,1.3,0,0,1,1.3-1.4h14.1a1.4,1.4,0,0,1,1.4,1.4h0A1.3,1.3,0,0,1,887.2,427.5Z"/><path class="cls-23" d="M900,434.2H873.1a1.3,1.3,0,0,1-1.3-1.3h0a1.3,1.3,0,0,1,1.3-1.4H900a1.3,1.3,0,0,1,1.3,1.4h0A1.3,1.3,0,0,1,900,434.2Z"/><path class="cls-26" d="M295.4,552.1l-1.4,4.3-5.6,30.2a6.8,6.8,0,0,1-.7,5.1c-3.4,6.7-14.7,13.9-20,12.9-16.5-3.2-31.1-35.5-31.1-35.5-3.9-2.9-7.8-13.4-5.5-19.5,4.8-13.1,4.9,5.8,11.1,8,1.3.5,3.3-6,5.1-2.8s-2.1,9.6-2.1,9.6,21.6,20.4,22.2,20.5a28.2,28.2,0,0,0,5.5-7.4c4-8,11.3-21,19.2-24.5A10.2,10.2,0,0,1,295.4,552.1Z"/><path class="cls-27" d="M294,556.4l5.7,25.4s-9.8,11.4-11.3,14.3c-7.8-5.5-14.9-11-19.2-16.4,6.1-7.4,19.6-28.5,27.5-32Z"/><rect class="cls-28" x="235" y="534.6" width="4.9" height="36.56" transform="translate(-198.6 138.2) rotate(-23.2)"/><path class="cls-28" d="M285,529.4a14.7,14.7,0,0,1-1.2-16.4c4.5-8.1,19.4-8.8,24.4-4.4,9.2,8.2,6.7,22.5-3.9,28.4Z"/><path class="cls-26" d="M326.9,565.2c-8.7,16.5-4.9,25.1-7.1,38.9-1.3,10.6-7,27.1-14.3,38.7l-36.9-13.6-8.4,6.8c4.2-2.6,38.9-27,35.2-41.7-6.5-27.5,1.3-46.6,1.3-46.6-.5-1.7-2.4-7.8-3-9.6l9.2-3.4,6.6,11.2C310.8,548.6,325.5,564.4,326.9,565.2Z"/><path class="cls-6" d="M253.1,630.1a43.6,43.6,0,0,0,7.4,5.6h0c7.2,4.2,13,3.3,25.1,5.5,2.7.5,5.4.8,8.1,1.1s7.8,1.3,11.7,1.3c.5-.9,1-2.1,1.5-3.2a9.3,9.3,0,0,0,.5-1l.9-1.7,1.7-3h0c16.8-31.5,22.6-55.3,15.9-74.2-3.1-8.9-15.7-14-16.4-14.5-8.3,8.3-13.4,10.7-12.8,1.8h0c-.4.2-14.8,9.2-14.9,44.3v.9c.1,11.6-4.1,17.7-9.9,22.5S259.1,623.6,253.1,630.1Z"/><path class="cls-29" d="M271.9,615.4a92.7,92.7,0,0,1,9.6,3.5l1.5.7c6.4,2.8,14-1.7,16.7-5.9s5.6-1.3,10.9-4c3.4-1.7,7.7-14.4,10.2-23,1.4-4.6,2.3-8,2.3-8l-1.1-.8-18.5-14.3c-3.7.9-7.4,5-10.7,9.9-4.5,6.7-8.2,14.8-9.8,17.3a4.5,4.5,0,0,1-1.2,1.2v.9C281.9,604.5,277.7,610.6,271.9,615.4Z"/><path class="cls-30" d="M305.6,539.3a24.7,24.7,0,0,1-9.7,5.9l-2.2-7.1,9.2-3.4Z"/><path class="cls-26" d="M306.7,526.8s4-3.7,2-6.5-7.1,2.9-7.1,2.9c-5.4.8-9.3-1.1-14.4-5.2a1.8,1.8,0,0,0-3,1.4c.2,6.3,1,18.4,5.4,21.5a9.1,9.1,0,0,0,7.9.8C303.2,540,306.6,527.4,306.7,526.8Z"/><path class="cls-28" d="M305.6,507.1s3.7-8.9,10.5-4,1.5,12.5-3.7,12.1S305.6,507.1,305.6,507.1Z"/><path class="cls-28" d="M285,529.4s1.2-8.3,1.2-12c0,0,.6,6.1,9.2,9,6.6,2.2,5.8,9.2,5.8,9.2,2.1-5.5,1.3-8.1.4-12.4l-2.2-5.6s-4.5-2-4.5-2.3-9-2-9-2l-2.9,4.6Z"/><path class="cls-31" d="M232.2,546.9c4.1-3.6,2.1,7.8,9.4,11.5.7.4,2.5-4.7,3.8-3.7s-1.3,7.2-.1,10.4c.6,1.6,39.7,30.4,39.7,30.4l10.4-14.8s13-14.1,18.5-12.7c9.3,2.4,9,15.3-2.7,28.7s-18.9,18.2-22.9,18.5c-15.7,1-43.3-34.2-48.8-40.4C238.9,574.2,223.7,554.5,232.2,546.9Z"/><path class="cls-27" d="M308.1,604.4a40.4,40.4,0,0,1-20.6-15.6s17.1-41.1,32-26.5C329.9,572.3,319.8,591,308.1,604.4Z"/><path class="cls-26" d="M78.5,653.9c.2,1.2.3,11.9.3,11.9,6.9-.4,14.3.1,21.6,0,2.1-.1,4.3-.1,6.4-.3h.6c31.7-2.8,65.3-3.1,100.7-3.1h60.8l-25.6-33.9c-17.1,1.7-33.9,3.6-50.5,5.7q-44.6,5.7-86.4,13.5l-.7.2C96.6,649.5,87.4,652,78.5,653.9Z"/><path class="cls-32" d="M105.7,647.8a.2.2,0,0,0,0,.3l.7,12.2.3,4.7a4.3,4.3,0,0,1,.1.5,2.4,2.4,0,0,0,2.5,1.6c79.2-12.1,143.4,17.1,169.4-5.7l-35.4-33c-17.1,1.7-34.1,3.4-50.9,5.3-29.1,3.2-57.6,6.9-84.9,12A2.2,2.2,0,0,0,105.7,647.8Z"/><path class="cls-33" d="M106.4,660.3l.3,4.7a4.3,4.3,0,0,1,.1.5,2.4,2.4,0,0,0,2.5,1.6c79.2-12.1,143.4,17.1,169.4-5.7l-35.4-33c-17.1,1.7-34.1,3.4-50.9,5.3.2.1.3.3.4.4,4.6,6.4,11.4,16.9,19.2,19.7,6.2,2.2,12,6,13.2,8.6s0,2.3-2.6,2.5-9-1.1-14.5-2.6-13.8-3.5-16.6-2.1c-5.2,2.6-34,2.1-33.8-2.7a5.4,5.4,0,0,1-5.6,4.3c-4.8,0-35.2,1.7-40.9-1.2A6.2,6.2,0,0,0,106.4,660.3Z"/><path class="cls-28" d="M80.8,665.9l-9.6,4.4h-16l-.5-3.1L68,662.7l-9.8-3.8c-2.6-1.1-4.9-2.8-5.6-5.5-1.9-7.2-4-21.5.7-22.7s6.9,12.5,12.9,15.9,13.2,7,13.2,7Z"/><path class="cls-26" d="M306.2,642c-61.6,76.7-96-27-114.5-23.4s-44,28-48.1,30.5-14.5,3.1-13.1-2.6c3.4-3.6,4.8-6.4,6.4-11.8.1,0-.8,5.1.5-1.7s32.1-38.9,43.1-40.3c30.5-4.1,53.7,24.6,75.6,34.4S288.1,634.1,306.2,642Z"/><path class="cls-34" d="M137,631.8a3.3,3.3,0,0,0,.8,4.4l4.7,3.3a89.9,89.9,0,0,0,9.4,5.9c6.8-7,33-21.2,35.9-22,6.2-1.6,36.4,45.4,69.6,47.7,14.2,1,38.1-3.9,48.9-29.3-7.4-2.6-17-7.5-27.8-13.3-32.8-17.5-76.2-43.2-99.5-39.1C167.3,591.4,145.3,619.1,137,631.8Z"/><path class="cls-32" d="M142.5,639.5a89.9,89.9,0,0,0,9.4,5.9c6.8-7,33-21.2,35.9-22,6.2-1.6,36.4,45.4,69.6,47.7,14.2,1,38.1-3.9,48.9-29.3-7.4-2.6-17-7.5-27.8-13.3,1.9,4.9,6.1,10,9,16,5.6,11.8-19.9,25.4-29.8,21.3s-15.6-6.7-23-8.4c-14.5-3.4-27.2-27.9-34.8-31.1-10.5-4.3-9.6-10.4-9.6-15.8,0,0-2.8,10.1-7.6,11.3s-22.4,10-26.3,15.9C153.5,642,146.3,640.4,142.5,639.5Z"/><path class="cls-34" d="M144,649c0,3.3.7,4.3.5,8.2s-1.5,10.6-2,15.1h-3.1l-2.7-13.8c-1.4,2.8-3.8,6.4-5.1,9a9.3,9.3,0,0,1-6.2,4.8c-5.4.9-20.7,2.4-21.8-3.7s13.7-6.5,16.9-10.5,6.4-8.1,9.6-12.1Z"/><path class="cls-31" d="M1025,445.9s39.2,20.8,48.5,13.7c4.3-3.2,7.4-9.1,9.6-15.3,3.7-10.6,4.7-22.3,3.5-23.6l5-24.9c-1.7,6.6-31.7,43-32,46.5-8.4-.6-29.1-3.9-30.4-4.5s-6.4-7.8-9.7-7.9,2.9,5.3,1.7,5.2-13.2-3.3-12.5,1.2C1010.3,446.3,1025,445.9,1025,445.9Z"/><path class="cls-35" d="M1062.7,431.9c6.3,4,13.2,9.8,18.6,12.4l2.2,1.2c3.8-10.6,10.7-21.5,9.5-22.8l-7.2-8.7,5.8-18.2C1086.9,400.7,1070.4,416.3,1062.7,431.9Z"/><path class="cls-36" d="M1064,435.5c.2,1,.3,1.8.4,2.5,10.6-3.6,23.5-4.8,23.8-6.6l2.4-11-10.8-1.5s-3.4,7.7-3.9,11.2S1068.1,434.5,1064,435.5Z"/><path class="cls-31" d="M1099.5,578.7a146.5,146.5,0,0,1,4.3,22.7c1.9,17.8,1.4,45.1-1.9,62.3l-9.1-.8s-12.8-46.7-18.9-70.6a151.6,151.6,0,0,1-3.4-15.5c-3.7-23.3,9.9-89.3,10.8-93.6h.1l36.6-5.1C1137.4,524.2,1114.3,535.8,1099.5,578.7Z"/><path class="cls-32" d="M1070.5,576.8c.2,1.4.7,5.2,1.3,9.8.8,6.3,1.8,14,2.6,19a5.2,5.2,0,0,0,4.4,4.2l3.3.3a56.2,56.2,0,0,0,14.2-.1,36.1,36.1,0,0,0,7.7-1.9,4.9,4.9,0,0,0,3.2-5.3c-1.2-9.7-2.3-19.3-4-26,5.5-15.8,8.4-25.5,13.5-36.2a96.2,96.2,0,0,0,6.7-16.6c3.4-12.4,3-26-5.4-46.1l-36.6,5.1h-.1C1080.4,487.5,1066.8,553.5,1070.5,576.8Z"/><path class="cls-37" d="M1080.1,489.4s8.3,3.5,9.9,5.7-1.4,10,2,18.6,1.7,16.3,4,28.2c1.5,8.1,7.5,18.4,5.7,24.8a10.3,10.3,0,0,1-8,7.3s7,3.4,7,7.4-1.1,8.3,1.3,15.2-1.7,10.9-5.5,12.6c-.4.2-.5.5-.2.8a36.1,36.1,0,0,0,7.7-1.9,4.9,4.9,0,0,0,3.2-5.3c-1.2-9.7-2.3-19.3-4-26,5.5-15.8,8.4-25.5,13.5-36.2a96.2,96.2,0,0,0,6.7-16.6c-3.7-16.7-7-32-7.4-34.6-.9-6.1-31.7-3.8-31.7-3.8Z"/><path class="cls-31" d="M1137.8,674.4l22.3-25.9s-16.4-25.5-29.6-42.5a118.1,118.1,0,0,0-8.7-10.3c-18.1-18.8-27.6-113.5-27.6-113.5h30c23.5,21.6,17.6,51.4,18.3,80.8a55.2,55.2,0,0,0,9,28.6c1.1,1.7,2.2,3.5,3.2,5.3,6.8,12.5,10.9,27.2,14.7,51.3l4.6,15.6Z"/><path class="cls-34" d="M1092,481.8s6.1,71.2,18.4,97.7c.2.3.4.8.8,1.4h0c2.8,5.1,11.5,19.5,15.8,25.9a5.3,5.3,0,0,0,5.4,2.3,33,33,0,0,0,7.1-2.4,63.8,63.8,0,0,0,9-4.7.1.1,0,0,1,.1-.1,48.6,48.6,0,0,0,4.1-2.7,5.4,5.4,0,0,0,1.7-6.7c-3.5-7.3-9.4-18.6-9.7-21.7-2.8-28.3,4.8-67.7-17.9-88.6h-3.9l-22.9-.2Z"/><path class="cls-32" d="M1100,481.9l-6.3,9.4c-.1,2,19.7,6.5,29.8,4.6s15.1,6.2,13.5,21.7-.8,15.6,1.6,27.9,3.5,22.2-4.5,26.4c.5-.2,8.2-3,9.2,4.2s8,14.8,7.2,19.9-1.7,5.7-1.9,5.9a48.6,48.6,0,0,0,4.1-2.7,5.4,5.4,0,0,0,1.7-6.7c-3.5-7.3-9.4-18.6-9.7-21.7-2.8-28.3,4.8-67.7-17.9-88.6h-3.9Z"/><path class="cls-2" d="M1076.5,484.5a6.2,6.2,0,0,0,5.1,5.3,124.1,124.1,0,0,0,21.3,1.8,164.5,164.5,0,0,0,24.8-2,5.5,5.5,0,0,0,2.5-1,6,6,0,0,0,2.6-4.1c1.7-11.8,6.4-44.6,6.6-63.5a59.5,59.5,0,0,0-.3-8.9c-1-7.9-7.2-19.2-22-23.1l-13.2.2c-22.5,4.8-26.3,35.7-26,47.7.1,5.5,0,11.1-.2,16.5-.5,9-1.2,17.4-1.3,23.8A56.8,56.8,0,0,0,1076.5,484.5Z"/><path class="cls-38" d="M1076.4,477.2a30.4,30.4,0,0,1,14.6-4.8c9.9-.4,28-9.5,29.4-16.3s4.6-2.2,8.8-9,3.8-23.2,3.8-23.2l-28,5s-3.4,6.7-5.6,10.5-15.4,10.5-21.7,14C1077.2,462.4,1076.5,470.8,1076.4,477.2Z"/><path class="cls-39" d="M1091.8,660.2c-10.6,4.1-22.1,4.8-27.5,10.4a4.1,4.1,0,0,0,3.2,6.9l34-1.2a4.1,4.1,0,0,0,3.9-4.3,31.3,31.3,0,0,0-2.8-11.8A13.1,13.1,0,0,1,1091.8,660.2Z"/><path class="cls-39" d="M1160.1,648.5c-9.1,8.1-21.8,14.3-24.4,22.8a3.8,3.8,0,0,0,4.9,4.7l32.4-10.8a4.4,4.4,0,0,0,3-5.2c-1.1-4.7-3.9-10.4-6.9-13.5C1166.5,649.1,1163.5,649.6,1160.1,648.5Z"/><path class="cls-39" d="M1108,377.5c4.3,1.4,6,3.5,11.5,1,8.4-3.8,15.4-18.2,4.3-24.8-.7-2.2-1.5-3.1-4.4-3.8s-5.9.7-10,.6-9.7-4.2-13.2,1.6,5.2,10.5,9.6,13.3S1108.7,373.3,1108,377.5Z"/><path class="cls-31" d="M1117.3,389.1c-4.8,4.8-9.3,5.7-13.4.1l1.1-9.3.5-3.9h10.6l.2,2.4Z"/><path class="cls-40" d="M1116.5,380.1c-2.6,3.2-9.9,4.1-11.8,2.8l.8-6.9,10.7-4.5Z"/><path class="cls-31" d="M1100.1,357.4c-2,5.6-3.9,17.7.8,22.3,2.9,2.8,13.7,1.7,15.9-6.2,2.6-1.8,4.5-6.4,2.1-8.5s-3.9,2.4-6.9,1.8c-1.1-.3,2.4-7.8-1.1-9.1S1103.6,359.2,1100.1,357.4Z"/><path class="cls-32" d="M1111.2,580.9c2.8,5.1,11.5,19.5,15.8,25.9a5.3,5.3,0,0,0,5.4,2.3,33,33,0,0,0,7.1-2.4c-.2-.3-4.7.8-7.9-.2-8.3-2.4-4-12.2-4-12.2C1121.7,596,1111.8,581.8,1111.2,580.9Z"/><path class="cls-37" d="M1071.8,586.6c.8,6.3,1.8,14,2.6,19a5.2,5.2,0,0,0,4.4,4.2l3.3.3c-.3-4-6.2-2.5-6.8-13.1a7.6,7.6,0,0,1,3.3-6.6C1076.3,590.5,1073.4,588.8,1071.8,586.6Z"/><path class="cls-41" d="M1079.3,422.9v38.8a5.2,5.2,0,0,1-2.3,4.3,8.4,8.4,0,0,1-1.4.6l-1.5.2h-56.7a4.5,4.5,0,0,1-2-.4l-1.2-.7a5.1,5.1,0,0,1-1.9-4V422.9a5.8,5.8,0,0,1,.6-2.6l.4-.5a4.9,4.9,0,0,1,4.1-2.1h56.7a4.9,4.9,0,0,1,4.1,2.1,4.1,4.1,0,0,1,.7,1.1A4.5,4.5,0,0,1,1079.3,422.9Z"/><path class="cls-42" d="M1045.8,439.7l-31.6,26,1.2.7,30.4-24.9,29.8,25.1a8.4,8.4,0,0,0,1.4-.6Z"/><path class="cls-42" d="M1079.3,422.9l-1.6,4.2-23.2,16.5a14.6,14.6,0,0,1-16.9,0l-23.2-16.5-2.1-4.2a4.6,4.6,0,0,1,1-3.1,4.9,4.9,0,0,1,4.1-2.1h56.7a4.9,4.9,0,0,1,4.1,2.1A4.7,4.7,0,0,1,1079.3,422.9Z"/><path class="cls-43" d="M1078.9,420.9l-2.8,5.5-22.3,16.1a13.2,13.2,0,0,1-15.4,0L1016,426.4l-3.1-6.1.4-.5a4.9,4.9,0,0,1,4.1-2.1h56.7a4.9,4.9,0,0,1,4.1,2.1A4.1,4.1,0,0,1,1078.9,420.9Z"/><path class="cls-31" d="M1134.2,430.2s-10.1,15.5-19.8,24.5a34.1,34.1,0,0,1-6.7,5c-14.8,7.7-51.1,7.2-51.1,7.2-10.6,7.1-25.2,5.4-28.5,1.5-5.9-7,13.4-2.1,14.6-6.8,0,0-9-3.6-7-7.3s17.8,3.7,17.8,3.7c16.7-6.3,29.3-9.8,43-15.8l2.9-5.1c7.2-12.4,15.9-23.9,28.5-32.3C1135.5,412.6,1136.3,421.2,1134.2,430.2Z"/><path class="cls-35" d="M1096.9,436.2c.7,2,3.8,5.7,7.5,9.2l.6.5c4.4,4.1,9.6,7.9,12.8,8.7,8.4-7.8,25.5-29.9,17.7-43.4h0a16.3,16.3,0,0,0-5.5-5.6C1117.3,397.4,1104.1,423.8,1096.9,436.2Z"/><path class="cls-8" d="M1105,445.9c4.4,4.1,9.6,7.9,12.8,8.7,8.4-7.8,25.5-29.9,17.7-43.4-.1.6-1.2,17.2-6.1,20.1s-2.6,7-7.5,12.3S1109.5,449.9,1105,445.9Z"/><path class="cls-44" d="M936.1,423.7a1.3,1.3,0,0,1-1-.4,1.2,1.2,0,0,1,.2-1.7l2.7-2.3a1.2,1.2,0,0,1,1.7.1,1.2,1.2,0,0,1-.1,1.7l-2.8,2.4A1,1,0,0,1,936.1,423.7Z"/><path class="cls-44" d="M944,416.3a1.1,1.1,0,0,1-.8-.3,1.2,1.2,0,0,1,0-1.7c1.7-1.7,3.3-3.5,4.8-5.3a1.2,1.2,0,1,1,1.9,1.5c-1.6,1.9-3.3,3.7-5,5.5A1.2,1.2,0,0,1,944,416.3Zm9.4-11.1a1,1,0,0,1-.7-.2,1.3,1.3,0,0,1-.3-1.7,62.5,62.5,0,0,0,4-6,1.3,1.3,0,0,1,1.6-.4,1.2,1.2,0,0,1,.4,1.7c-1.2,2-2.6,4.1-4,6.1A1,1,0,0,1,953.4,405.2Zm7.4-12.4-.5-.2a1.2,1.2,0,0,1-.5-1.6c1-2.1,1.9-4.3,2.8-6.6a1.2,1.2,0,0,1,1.5-.7,1.2,1.2,0,0,1,.7,1.6,57.9,57.9,0,0,1-2.9,6.8A1.2,1.2,0,0,1,960.8,392.8Zm5.1-13.7h-.3a1.2,1.2,0,0,1-.9-1.5c.6-2.3,1.1-4.6,1.5-7a1.3,1.3,0,0,1,1.4-1,1.2,1.2,0,0,1,1,1.4c-.4,2.4-.9,4.9-1.5,7.2A1.3,1.3,0,0,1,965.9,379.1Zm2.4-14.3h-.1a1.1,1.1,0,0,1-1.1-1.3c.1-1.6.2-3.3.2-5v-2.2a1.2,1.2,0,0,1,1.2-1.2h0a1.2,1.2,0,0,1,1.2,1.2v2.3c0,1.7-.1,3.4-.2,5.1A1.3,1.3,0,0,1,968.3,364.8Zm.1-14.5a1.3,1.3,0,0,1-1.3-1.2c-.1-2.4-.3-4.9-.5-7.2a1.2,1.2,0,1,1,2.4-.2c.3,2.3.4,4.8.6,7.3a1.3,1.3,0,0,1-1.2,1.3ZM938.7,349a1.1,1.1,0,0,1-1.2-1.1,1.1,1.1,0,0,1,1-1.3,32,32,0,0,0,6.8-1.6,1.4,1.4,0,0,1,1.6.7,1.3,1.3,0,0,1-.8,1.6,38.5,38.5,0,0,1-7.3,1.7Zm-7.3-.3h-.2a33,33,0,0,1-7.2-2.2,1.2,1.2,0,0,1-.6-1.6,1.1,1.1,0,0,1,1.6-.6,33.2,33.2,0,0,0,6.6,2,1.2,1.2,0,0,1,1,1.4A1.2,1.2,0,0,1,931.4,348.7Zm20.9-4.5a1.3,1.3,0,0,1-1.1-.6,1.4,1.4,0,0,1,.4-1.7,31.5,31.5,0,0,0,5.7-4.1,1.2,1.2,0,0,1,1.7.1,1.2,1.2,0,0,1-.1,1.7,45.8,45.8,0,0,1-6,4.4Zm-34.1-1.3a1.1,1.1,0,0,1-.7-.3l-2-1.5a23.8,23.8,0,0,1-3.5-3.6,1.2,1.2,0,0,1,.1-1.7,1.2,1.2,0,0,1,1.7.2,24.2,24.2,0,0,0,3.2,3.2l2,1.5a1.2,1.2,0,0,1-.8,2.2Zm48.6-7.1a1.2,1.2,0,0,1-1.2-1l-.3-1.5-1.1,1.2a1.1,1.1,0,0,1-1.7,0,1.2,1.2,0,0,1-.1-1.7,26.2,26.2,0,0,0,2.2-2.5l-.6-2.4a1.2,1.2,0,1,1,2.3-.7c.1.2.1.5.2.7l.5-.6a1.2,1.2,0,1,1,1.9,1.4,18.4,18.4,0,0,1-1.7,2.2c.3,1.2.5,2.3.8,3.5a1.2,1.2,0,0,1-1,1.4Zm-57.3-4.2a1.2,1.2,0,0,1-1.1-.9,15.1,15.1,0,0,1-.7-4.8c0-.9.1-1.9.2-2.9a1.2,1.2,0,0,1,1.4-1,1.2,1.2,0,0,1,1,1.4,21.1,21.1,0,0,0-.2,2.5,15.2,15.2,0,0,0,.6,4.2,1.1,1.1,0,0,1-.9,1.4Zm62.5-8.4-.7-.2a1.4,1.4,0,0,1-.4-1.7c1.2-2,2.4-4.1,3.5-6.3a1.2,1.2,0,0,1,2.1,1.1c-1.1,2.2-2.3,4.4-3.5,6.5A1.3,1.3,0,0,1,972,323.2Zm-9.2-1.3a1.2,1.2,0,0,1-1.1-.8,51.8,51.8,0,0,0-3.3-6.2,1.3,1.3,0,0,1,.4-1.7,1.2,1.2,0,0,1,1.7.4,50.9,50.9,0,0,1,3.4,6.6,1.3,1.3,0,0,1-.7,1.6Zm-51.2-4.3-.6-.2a1.2,1.2,0,0,1-.5-1.6,26.4,26.4,0,0,1,4.6-6.1,1.4,1.4,0,0,1,1.7,0,1.2,1.2,0,0,1,0,1.7,27.3,27.3,0,0,0-4.2,5.6A1.1,1.1,0,0,1,911.6,317.6Zm66.8-7.5H978a1.4,1.4,0,0,1-.7-1.6c.9-2.2,1.7-4.5,2.5-6.8a1.2,1.2,0,0,1,1.5-.8,1.4,1.4,0,0,1,.8,1.6c-.8,2.3-1.6,4.6-2.5,6.9A1.2,1.2,0,0,1,978.4,310.1Zm-23.4-.4a1.4,1.4,0,0,1-.9-.3,24.3,24.3,0,0,0-5.5-4.2,1.2,1.2,0,0,1-.5-1.6,1.3,1.3,0,0,1,1.7-.5,25.9,25.9,0,0,1,6,4.6,1.2,1.2,0,0,1,0,1.7A1.1,1.1,0,0,1,955,309.7Zm-33.4-2.5a1.2,1.2,0,0,1-1-.5,1.3,1.3,0,0,1,.3-1.7,30.5,30.5,0,0,1,6.8-3.3,1.2,1.2,0,0,1,1.5.7,1.3,1.3,0,0,1-.7,1.6,30.3,30.3,0,0,0-6.3,3A.7.7,0,0,1,921.6,307.2Zm20.8-4.4h-.2a22.7,22.7,0,0,0-6.9-.3,1.2,1.2,0,0,1-1.3-1.1,1.1,1.1,0,0,1,1.1-1.3,24.2,24.2,0,0,1,7.6.4,1.2,1.2,0,0,1,.9,1.4A1.1,1.1,0,0,1,942.4,302.8Zm40.5-6.5h-.3a1.3,1.3,0,0,1-.9-1.5c.6-2.3,1.1-4.7,1.5-7a1.2,1.2,0,0,1,1.4-1,1.2,1.2,0,0,1,1,1.4q-.6,3.6-1.5,7.2A1.4,1.4,0,0,1,982.9,296.3Zm2.4-14.3h-.1a1.4,1.4,0,0,1-1.1-1.3,59,59,0,0,0,.4-7.2,1.2,1.2,0,0,1,1.3-1.2,1.1,1.1,0,0,1,1.1,1.2,62.3,62.3,0,0,1-.4,7.4A1.1,1.1,0,0,1,985.3,282Zm.2-14.6a1.2,1.2,0,0,1-1.2-1.1,55.1,55.1,0,0,0-.8-7.1,1.2,1.2,0,0,1,1-1.4,1.3,1.3,0,0,1,1.4,1,60.3,60.3,0,0,1,.8,7.3,1.1,1.1,0,0,1-1.1,1.3Zm-2.4-14.3a1.1,1.1,0,0,1-1.1-.9c-.6-2.3-1.4-4.6-2.2-6.8a1.2,1.2,0,1,1,2.2-.8,57.3,57.3,0,0,1,2.3,7,1.2,1.2,0,0,1-.9,1.5ZM978,239.6a1.4,1.4,0,0,1-1.1-.7c-1-2.1-2.2-4.2-3.4-6.3a1.2,1.2,0,1,1,2-1.2c1.3,2.1,2.5,4.2,3.6,6.4a1.2,1.2,0,0,1-.6,1.6Zm-7.6-12.4a1.1,1.1,0,0,1-1-.5c-1.4-1.8-2.9-3.7-4.5-5.5a1.2,1.2,0,0,1,.1-1.7,1.2,1.2,0,0,1,1.7.1c1.6,1.8,3.2,3.8,4.7,5.7a1.2,1.2,0,0,1-.3,1.7Zm-9.6-10.8a1.2,1.2,0,0,1-.9-.3c-1.7-1.7-3.5-3.3-5.3-4.8a1.2,1.2,0,0,1-.2-1.7,1.2,1.2,0,0,1,1.7-.2c1.9,1.6,3.8,3.2,5.5,4.9a1.2,1.2,0,0,1,0,1.7A.9.9,0,0,1,960.8,216.4Zm-11.2-9.3-.7-.2-5.9-4.1a1.1,1.1,0,0,1-.4-1.6,1.2,1.2,0,0,1,1.7-.4c2,1.3,4.1,2.7,6,4.1a1.3,1.3,0,0,1,.3,1.7A1.4,1.4,0,0,1,949.6,207.1Zm-12.2-7.8-.6-.2-6.4-3.4a1.3,1.3,0,0,1-.5-1.6,1.2,1.2,0,0,1,1.6-.6L938,197a1.1,1.1,0,0,1,.4,1.6A1.2,1.2,0,0,1,937.4,199.3Zm-611.8-.2a1.2,1.2,0,0,1,0-2.4h7.2a1.3,1.3,0,0,1,1.3,1.2,1.2,1.2,0,0,1-1.2,1.2Zm-7.3,0H311a1.3,1.3,0,0,1-1.2-1.2,1.3,1.3,0,0,1,1.3-1.2h7.2a1.2,1.2,0,0,1,0,2.4Zm21.8-.2a1.2,1.2,0,0,1,0-2.4l7.3-.2a1.2,1.2,0,0,1,1.2,1.2,1.2,1.2,0,0,1-1.1,1.2l-7.3.2Zm-36.3-.1h-.1l-7.3-.3a1.3,1.3,0,0,1-1.1-1.3,1.1,1.1,0,0,1,1.3-1.1l7.2.3a1.2,1.2,0,1,1,0,2.4Zm50.9-.3a1.2,1.2,0,0,1-1.2-1.2,1.3,1.3,0,0,1,1.1-1.3l7.3-.3a1.4,1.4,0,0,1,1.3,1.2,1.2,1.2,0,0,1-1.2,1.2c-2.4.2-4.9.3-7.3.3Zm-65.5-.5h0l-7.3-.5a1.2,1.2,0,0,1-1.1-1.3,1.1,1.1,0,0,1,1.3-1.1l7.2.5a1.2,1.2,0,0,1,1.1,1.3A1.1,1.1,0,0,1,289.2,198Zm80-.2a1.2,1.2,0,1,1,0-2.4l7.2-.4a1.1,1.1,0,0,1,1.3,1.1,1.3,1.3,0,0,1-1.1,1.3l-7.3.4Zm14.5-.9a1.3,1.3,0,0,1-1.2-1.1,1.3,1.3,0,0,1,1.2-1.3l7.2-.5a1.2,1.2,0,0,1,1.3,1.2,1.1,1.1,0,0,1-1.1,1.2l-7.3.5Zm-108.9-.2h-.2l-7.2-.9a1.2,1.2,0,1,1,.3-2.4l7.2.9a1.3,1.3,0,0,1,1.1,1.4A1.2,1.2,0,0,1,274.8,196.7Zm123.5-.8a1.1,1.1,0,0,1-1.2-1.1,1.2,1.2,0,0,1,1.1-1.3l7.2-.5a1.1,1.1,0,0,1,1.3,1.1,1.2,1.2,0,0,1-1.1,1.3l-7.2.5Zm14.5-1.1a1.2,1.2,0,0,1-1.2-1.1,1.2,1.2,0,0,1,1.1-1.3l7.2-.6a1.1,1.1,0,0,1,1.3,1.1,1.2,1.2,0,0,1-1.1,1.3l-7.2.6Zm-152.4-.2h-.3l-7.1-1.4a1.3,1.3,0,0,1-1-1.5,1.3,1.3,0,0,1,1.5-.9l7.1,1.4a1.2,1.2,0,0,1,.9,1.4A1.2,1.2,0,0,1,260.4,194.6Zm166.9-1a1.2,1.2,0,0,1-1.2-1.1,1.1,1.1,0,0,1,1.1-1.3l7.2-.7a1.2,1.2,0,0,1,1.3,1.1,1.1,1.1,0,0,1-1.1,1.3l-7.2.7Zm497.2-1H924l-6.7-2.8a1.2,1.2,0,0,1-.6-1.6,1.2,1.2,0,0,1,1.5-.7l6.8,2.9a1.3,1.3,0,0,1,.6,1.6A1.3,1.3,0,0,1,924.5,192.6Zm-482.7-.3a1.2,1.2,0,0,1-1.2-1.1,1.1,1.1,0,0,1,1.1-1.3l7.2-.7a1.1,1.1,0,0,1,1.3,1.1,1.2,1.2,0,0,1-1.1,1.3l-7.2.7Zm-195.6-.9h-.3c-2.5-.7-4.9-1.4-7.1-2.2a1.2,1.2,0,0,1-.7-1.5,1.2,1.2,0,0,1,1.5-.8l6.9,2.2a1.2,1.2,0,0,1,.8,1.5A1.1,1.1,0,0,1,246.2,191.4Zm210.1-.5a1.1,1.1,0,0,1-1.2-1.1,1.1,1.1,0,0,1,1-1.3l7.3-.8a1.4,1.4,0,0,1,1.3,1.1,1.1,1.1,0,0,1-1.1,1.3l-7.2.8Zm14.4-1.5a1.2,1.2,0,0,1-1.2-1.1,1.3,1.3,0,0,1,1.1-1.3l7.2-.7a1.2,1.2,0,0,1,1.4,1,1.3,1.3,0,0,1-1.1,1.4l-7.2.7Zm14.5-1.5a1.2,1.2,0,0,1-1.2-1.1,1.2,1.2,0,0,1,1.1-1.3l7.2-.8a1.2,1.2,0,0,1,1.3,1.1,1.1,1.1,0,0,1-1,1.3l-7.3.8Zm425.8-.8h-.4l-6.8-2.4a1.2,1.2,0,0,1-.8-1.5,1.3,1.3,0,0,1,1.6-.8l6.8,2.5a1.2,1.2,0,0,1,.8,1.5A1.3,1.3,0,0,1,911,187.1Zm-678.5-.5H232a50.8,50.8,0,0,1-6.6-3.3,1.3,1.3,0,0,1-.5-1.7,1.3,1.3,0,0,1,1.7-.4,63.6,63.6,0,0,0,6.4,3.2,1.3,1.3,0,0,1,.6,1.6A1.2,1.2,0,0,1,232.5,186.6Zm267.2-.2a1.2,1.2,0,0,1-1.2-1.1,1.1,1.1,0,0,1,1-1.3l7.3-.8a1.2,1.2,0,0,1,1.3,1.1,1.2,1.2,0,0,1-1,1.3l-7.3.8Zm14.5-1.6a1.3,1.3,0,0,1-1.2-1.1,1.2,1.2,0,0,1,1.1-1.3l7.2-.8a1.1,1.1,0,0,1,1.3,1.1,1.2,1.2,0,0,1-1,1.3l-7.3.8Zm14.5-1.6a1.1,1.1,0,0,1-1.2-1.1,1.2,1.2,0,0,1,1-1.3l7.3-.8a1.2,1.2,0,0,1,1.3,1.1,1.1,1.1,0,0,1-1,1.3l-7.3.8Zm368.6-.7h-.4l-6.9-2a1.2,1.2,0,0,1-.9-1.5,1.2,1.2,0,0,1,1.5-.8l7,2a1.2,1.2,0,0,1,.8,1.5A1.3,1.3,0,0,1,897.3,182.5Zm-354.1-.9c-.7,0-1.2-.4-1.2-1a1.2,1.2,0,0,1,1-1.4l7.2-.8a1.3,1.3,0,0,1,1.4,1.1,1.1,1.1,0,0,1-1.1,1.3l-7.2.8Zm14.4-1.6a1.2,1.2,0,0,1-1.2-1,1.2,1.2,0,0,1,1.1-1.4l7.2-.7a1.1,1.1,0,0,1,1.3,1,1.2,1.2,0,0,1-1,1.4l-7.3.7ZM220,179.3a1.3,1.3,0,0,1-.8-.3,44.5,44.5,0,0,1-5.4-5.2,1.2,1.2,0,0,1,1.9-1.6,29.1,29.1,0,0,0,5,4.9,1.2,1.2,0,0,1,.2,1.7A1.2,1.2,0,0,1,220,179.3Zm663.2-.7h-.3l-7-1.7a1.2,1.2,0,0,1-.9-1.4,1.2,1.2,0,0,1,1.4-1l7.1,1.7a1.2,1.2,0,0,1,.9,1.5A1.2,1.2,0,0,1,883.2,178.6ZM572,178.5a1.3,1.3,0,0,1-1.2-1.1,1.2,1.2,0,0,1,1.1-1.3l7.2-.8a1.1,1.1,0,0,1,1.3,1.1,1.2,1.2,0,0,1-1,1.3l-7.2.8Zm14.5-1.6a1.1,1.1,0,0,1-1.2-1.1,1.2,1.2,0,0,1,1.1-1.3l7.2-.7a1.1,1.1,0,0,1,1.3,1,1.2,1.2,0,0,1-1.1,1.4l-7.2.7Zm14.5-1.5a1.1,1.1,0,0,1-1.2-1.1,1.2,1.2,0,0,1,1-1.3l7.3-.7a1.1,1.1,0,0,1,1.3,1,1.2,1.2,0,0,1-1.1,1.4l-7.2.7Zm268.1,0h-.3l-7.1-1.4a1.2,1.2,0,0,1-1-1.4,1.3,1.3,0,0,1,1.4-1l7.2,1.4a1.1,1.1,0,0,1,.9,1.4A1.2,1.2,0,0,1,869.1,175.4Zm-253.7-1.5a1.2,1.2,0,0,1-1.2-1.1,1.3,1.3,0,0,1,1.1-1.3l7.3-.7a1.3,1.3,0,0,1,1.3,1.1,1.2,1.2,0,0,1-1.1,1.3l-7.2.7Zm239.4-1.1h-.2l-7.2-1.2a1.1,1.1,0,0,1-1-1.3,1.3,1.3,0,0,1,1.4-1.1l7.2,1.2a1.2,1.2,0,0,1,1,1.4A1.3,1.3,0,0,1,854.8,172.8Zm-224.9-.3a1.3,1.3,0,0,1-1.2-1.1,1.2,1.2,0,0,1,1.1-1.3l7.2-.7a1.3,1.3,0,0,1,1.4,1.1,1.2,1.2,0,0,1-1.1,1.3l-7.3.7Zm14.5-1.3a1.3,1.3,0,0,1-1.2-1.1,1.1,1.1,0,0,1,1.1-1.3l7.2-.7a1.3,1.3,0,0,1,1.4,1.1,1.2,1.2,0,0,1-1.1,1.3l-7.3.7Zm196-.6h-.2l-7.2-.9a1.2,1.2,0,0,1-1-1.3,1.2,1.2,0,0,1,1.3-1.1l7.2.9a1.2,1.2,0,0,1,1.1,1.4A1.2,1.2,0,0,1,840.4,170.6Zm-181.5-.7a1.3,1.3,0,0,1-1.2-1.1,1.2,1.2,0,0,1,1.1-1.3l7.3-.6a1.3,1.3,0,0,1,1.3,1.1,1.2,1.2,0,0,1-1.1,1.3l-7.3.6Zm167.1-1h-.2l-7.2-.7a1.2,1.2,0,0,1-1.1-1.3,1.2,1.2,0,0,1,1.3-1.1l7.3.7a1.2,1.2,0,0,1,1,1.3A1,1,0,0,1,826,168.9Zm-152.6-.1a1.3,1.3,0,0,1-1.2-1.2,1.4,1.4,0,0,1,1.1-1.3l7.3-.5a1.3,1.3,0,0,1,1.3,1.1,1.2,1.2,0,0,1-1.1,1.3l-7.3.5A.1.1,0,0,1,673.4,168.8Zm-462.6-.6a1.1,1.1,0,0,1-1.1-.6,32,32,0,0,1-2.6-7.1,1.3,1.3,0,0,1,1-1.5,1.2,1.2,0,0,1,1.4.9,30.4,30.4,0,0,0,2.3,6.6,1.2,1.2,0,0,1-.5,1.6Zm477.1-.5a1.3,1.3,0,0,1-1.2-1.1,1.3,1.3,0,0,1,1.1-1.3l7.3-.5a1.2,1.2,0,0,1,1.3,1.2,1.4,1.4,0,0,1-1.1,1.3l-7.3.4Zm123.6-.1h-.1l-7.3-.5a1.3,1.3,0,0,1-1.1-1.3,1.2,1.2,0,0,1,1.3-1.1l7.3.5a1.2,1.2,0,0,1,1.1,1.3A1.3,1.3,0,0,1,811.5,167.6Zm-109.1-.8a1.3,1.3,0,0,1-1.2-1.1,1.3,1.3,0,0,1,1.2-1.3l7.3-.3a1.1,1.1,0,0,1,1.2,1.1,1.2,1.2,0,0,1-1.1,1.3l-7.3.3Zm94.6-.2h-.1l-7.3-.3a1.3,1.3,0,0,1-1.1-1.3,1.2,1.2,0,0,1,1.3-1.2l7.2.4a1.3,1.3,0,0,1,1.2,1.3A1.3,1.3,0,0,1,797,166.6Zm-80-.5a1.1,1.1,0,0,1-1.2-1.1,1.3,1.3,0,0,1,1.1-1.3l7.3-.2h.1a1.3,1.3,0,0,1,1.2,1.1,1.2,1.2,0,0,1-1.2,1.3l-7.3.2Zm65.4-.1h0l-7.3-.3a1.1,1.1,0,0,1-1.1-1.2,1.2,1.2,0,0,1,1.2-1.2l7.3.2a1.3,1.3,0,0,1-.1,2.5Zm-50.9-.3a1.3,1.3,0,0,1-1.2-1.2,1.2,1.2,0,0,1,1.2-1.2l7.3-.2a1.2,1.2,0,0,1,1.2,1.2,1.2,1.2,0,0,1-1.2,1.2l-7.2.2Zm36.4-.1h-7.3a1.2,1.2,0,0,1,0-2.4h7.3a1.2,1.2,0,0,1,1.2,1.2A1.2,1.2,0,0,1,767.9,165.6Zm-21.8-.1a1.2,1.2,0,0,1-1.2-1.2,1.2,1.2,0,0,1,1.2-1.3h7.3a1.3,1.3,0,0,1,1.2,1.2,1.2,1.2,0,0,1-1.2,1.2h-7.3ZM207.6,154.2a1.2,1.2,0,0,1-1.3-1.2h0a47.4,47.4,0,0,1,.7-7.4,1.2,1.2,0,0,1,1.4-1,1.2,1.2,0,0,1,1,1.4,42.3,42.3,0,0,0-.6,7A1.3,1.3,0,0,1,207.6,154.2Zm2.3-14.3h-.3a1.2,1.2,0,0,1-.8-1.6c.7-2.2,1.5-4.5,2.5-6.9a1.2,1.2,0,0,1,1.6-.6,1.1,1.1,0,0,1,.6,1.5,69.5,69.5,0,0,0-2.4,6.8A1.3,1.3,0,0,1,209.9,139.9Zm5.6-13.4H215a1.3,1.3,0,0,1-.6-1.7c1.1-2.1,2.3-4.2,3.6-6.4a1.2,1.2,0,0,1,2,1.2c-1.2,2.2-2.4,4.3-3.4,6.3A1.2,1.2,0,0,1,215.5,126.5Zm7.3-12.6a.7.7,0,0,1-.6-.2,1.2,1.2,0,0,1-.4-1.6l.6-.9c1.1-1.7,2.4-3.5,3.6-5.2a1.2,1.2,0,0,1,1.7-.2,1.2,1.2,0,0,1,.3,1.7,57.4,57.4,0,0,0-3.6,5l-.6.9A1.2,1.2,0,0,1,222.8,113.9Zm8.8-11.5a1.1,1.1,0,0,1-.8-.3,1.2,1.2,0,0,1-.1-1.7c1.6-1.9,3.3-3.7,5-5.4a1.2,1.2,0,1,1,1.7,1.7c-1.7,1.7-3.4,3.5-4.9,5.2A1.4,1.4,0,0,1,231.6,102.4Zm10.3-10.3a1.1,1.1,0,0,1-.9-.4,1.2,1.2,0,0,1,.1-1.7c1.8-1.6,3.7-3.1,5.7-4.6a1.2,1.2,0,0,1,1.5,1.9c-2,1.5-3.8,3-5.6,4.5A1.1,1.1,0,0,1,241.9,92.1Zm11.5-8.8a1.6,1.6,0,0,1-1-.5,1.3,1.3,0,0,1,.4-1.7l6.2-3.9a1.1,1.1,0,0,1,1.6.4,1.2,1.2,0,0,1-.4,1.7c-2.1,1.2-4.1,2.5-6.1,3.8A.8.8,0,0,1,253.4,83.3Zm12.5-7.5a1.4,1.4,0,0,1-1.1-.6,1.2,1.2,0,0,1,.5-1.6l6.6-3.3a1.2,1.2,0,0,1,1.6.5,1.3,1.3,0,0,1-.6,1.7l-6.4,3.2ZM279,69.6a1.3,1.3,0,0,1-1.1-.8,1.1,1.1,0,0,1,.6-1.5l6.8-2.8a1.3,1.3,0,0,1,1.6.7,1.4,1.4,0,0,1-.7,1.6c-2.3.8-4.5,1.8-6.7,2.7Zm452.7-5h-5.1a1.2,1.2,0,0,1,0-2.4h7.3a1.2,1.2,0,0,1,1.2,1.2,1.2,1.2,0,0,1-1.2,1.2h-2.2Zm9.5-.2a1.1,1.1,0,0,1-1.2-1.1,1.2,1.2,0,0,1,1.1-1.3c2.6,0,5-.1,7.3-.3a1.4,1.4,0,0,1,1.3,1.2,1.2,1.2,0,0,1-1.2,1.2c-2.3.2-4.8.3-7.3.3Zm-21.8,0h-.1l-7.3-.3a1.1,1.1,0,0,1-1.1-1.2,1.2,1.2,0,0,1,1.2-1.2l7.3.3a1.2,1.2,0,0,1,1.2,1.2A1.3,1.3,0,0,1,719.4,64.4Zm-426.8,0a1.4,1.4,0,0,1-1.2-.9,1.2,1.2,0,0,1,.8-1.5l6.9-2.3a1.3,1.3,0,0,1,1.6.8,1.2,1.2,0,0,1-.8,1.5L293,64.3Zm412.2-.6h0l-7.3-.4a1.2,1.2,0,0,1-1.2-1.2,1.3,1.3,0,0,1,1.3-1.2l7.3.4a1.2,1.2,0,0,1,1.1,1.3A1.1,1.1,0,0,1,704.8,63.8Zm50.9-.2a1.2,1.2,0,0,1-1.2-1.1,1.2,1.2,0,0,1,1.1-1.3l7.2-.8a1.2,1.2,0,0,1,1.3,1,1.2,1.2,0,0,1-1,1.4l-7.3.8ZM690.3,63h-.1l-7.3-.5a1.2,1.2,0,0,1-1.1-1.3,1.4,1.4,0,0,1,1.3-1.1l7.3.5a1.2,1.2,0,0,1,1.1,1.3A1.3,1.3,0,0,1,690.3,63Zm-14.5-1h-.1l-7.3-.5a1.4,1.4,0,0,1-1.1-1.3,1.2,1.2,0,0,1,1.3-1.1l7.3.5a1.3,1.3,0,0,1,1.1,1.3A1.3,1.3,0,0,1,675.8,62Zm94.3-.4a1.2,1.2,0,0,1-1.2-1,1.2,1.2,0,0,1,.9-1.4,59.3,59.3,0,0,0,7-1.8,1.2,1.2,0,0,1,.7,2.3c-2.2.7-4.6,1.3-7.2,1.9Zm-108.8-.7h-.1l-7.3-.6a1.2,1.2,0,0,1,.2-2.4l7.3.6a1.2,1.2,0,0,1,1.1,1.3A1.3,1.3,0,0,1,661.3,60.9ZM306.5,60a1.3,1.3,0,0,1-1.2-.8,1.1,1.1,0,0,1,.9-1.5c2.2-.7,4.6-1.3,7-1.9a1.2,1.2,0,0,1,1.5.9,1.2,1.2,0,0,1-.9,1.4l-7,1.9Zm340.3-.3h-.1l-7.3-.7a1.1,1.1,0,0,1-1.1-1.3,1.4,1.4,0,0,1,1.3-1.1l7.3.7a1.2,1.2,0,0,1,1.1,1.3A1.3,1.3,0,0,1,646.8,59.7Zm-14.5-1.3h-.1l-7.3-.7a1.2,1.2,0,0,1-1.1-1.3,1.3,1.3,0,0,1,1.3-1.1l7.3.7a1.2,1.2,0,0,1,1.1,1.3A1.3,1.3,0,0,1,632.3,58.4Zm-14.5-1.3h-.1l-7.3-.7a1.2,1.2,0,0,1-1.1-1.3,1.4,1.4,0,0,1,1.3-1.1l7.3.7A1.3,1.3,0,0,1,619,56,1.3,1.3,0,0,1,617.8,57.1Zm-297.2-.6a1.2,1.2,0,0,1-1.2-.9,1.3,1.3,0,0,1,.9-1.5l7.2-1.5a1.2,1.2,0,0,1,1.4.9,1.3,1.3,0,0,1-1,1.5c-2.3.4-4.7.9-7,1.5Zm282.7-.7h-.1l-7.3-.7a1.2,1.2,0,0,1-1.1-1.3,1.4,1.4,0,0,1,1.3-1.1l7.3.7a1.2,1.2,0,0,1,1.1,1.3A1.3,1.3,0,0,1,603.3,55.8Zm-14.5-1.3h-.1l-7.3-.6a1.4,1.4,0,0,1-1.1-1.3,1.2,1.2,0,0,1,1.3-1.1l7.3.6a1.2,1.2,0,0,1,1.1,1.3A1.3,1.3,0,0,1,588.8,54.5Zm-254-.9a1.2,1.2,0,0,1-.2-2.4l7.2-1.2a1.2,1.2,0,0,1,1.4,1,1.2,1.2,0,0,1-1,1.4l-7.1,1.2Zm239.5-.4h-.1l-7.3-.6a1.2,1.2,0,0,1-1.1-1.3,1.4,1.4,0,0,1,1.3-1.1l7.3.6a1.3,1.3,0,0,1,1.1,1.3A1.2,1.2,0,0,1,574.3,53.2ZM559.8,52h-.1l-7.3-.6a1.2,1.2,0,0,1-1.1-1.3,1.3,1.3,0,0,1,1.3-1.1l7.3.6a1.4,1.4,0,0,1,1.1,1.3A1.2,1.2,0,0,1,559.8,52Zm-210.6-.7a1.2,1.2,0,0,1-1.2-1,1.2,1.2,0,0,1,1-1.4l7.3-.9a1.1,1.1,0,0,1,1.3,1,1.2,1.2,0,0,1-1,1.4l-7.2.9Zm196.1-.4h-.1l-7.3-.6a1.1,1.1,0,0,1-1.1-1.3,1.2,1.2,0,0,1,1.3-1.1l7.3.6a1.2,1.2,0,0,1,1.1,1.3A1.3,1.3,0,0,1,545.3,50.9Zm-14.6-1.1h-.1l-7.2-.5a1.2,1.2,0,0,1-1.2-1.3,1.3,1.3,0,0,1,1.3-1.1l7.3.5a1.1,1.1,0,0,1,1.1,1.3A1.1,1.1,0,0,1,530.7,49.8Zm-167.1-.3a1,1,0,0,1-1.1-1.1,1.2,1.2,0,0,1,1-1.3l7.3-.7a1.2,1.2,0,1,1,.2,2.4l-7.2.7Zm152.6-.7h-.1l-7.3-.4a1.2,1.2,0,0,1-1.1-1.3A1.2,1.2,0,0,1,509,46l7.3.4a1.3,1.3,0,0,1,1.1,1.3A1.3,1.3,0,0,1,516.2,48.8Zm-138.1-.6a1.3,1.3,0,0,1-1.2-1.2,1.4,1.4,0,0,1,1.1-1.3l7.3-.5a1.2,1.2,0,1,1,.2,2.4l-7.3.5C378.2,48.2,378.2,48.2,378.1,48.2ZM501.6,48h0l-7.3-.4a1.2,1.2,0,0,1-1.1-1.3,1.1,1.1,0,0,1,1.2-1.1l7.3.4a1.1,1.1,0,0,1,1.1,1.2A1.2,1.2,0,0,1,501.6,48Zm-14.5-.7h0l-7.3-.4a1.2,1.2,0,0,1-1.2-1.2,1.3,1.3,0,0,1,1.3-1.2l7.3.3a1.3,1.3,0,0,1-.1,2.5Zm-94.5-.1a1.3,1.3,0,0,1-1.2-1.2,1.4,1.4,0,0,1,1.2-1.3l7.3-.3a1.1,1.1,0,0,1,1.2,1.1,1.2,1.2,0,0,1-1.1,1.3l-7.3.4Zm80-.5h0l-7.3-.3a1.2,1.2,0,0,1-1.2-1.2,1.3,1.3,0,0,1,1.2-1.2h.1l7.2.3a1.2,1.2,0,0,1,1.2,1.2A1.2,1.2,0,0,1,472.6,46.7Zm-65.4-.2a1.2,1.2,0,0,1-1.2-1.2,1.2,1.2,0,0,1,1.1-1.2l7.3-.2h.1a1.3,1.3,0,0,1,1.2,1.1,1.2,1.2,0,0,1-1.2,1.3l-7.3.2Zm50.9-.2h0l-7.3-.2a1.2,1.2,0,0,1-1.2-1.2,1.2,1.2,0,0,1,1.2-1.2h0l7.3.2a1.2,1.2,0,0,1,1.2,1.2A1.3,1.3,0,0,1,458.1,46.3Zm-36.4-.2a1.2,1.2,0,1,1,0-2.4H429a1.2,1.2,0,0,1,1.2,1.2A1.2,1.2,0,0,1,429,46Zm21.8-.1h-7.2a1.2,1.2,0,1,1,0-2.4h7.3a1.3,1.3,0,0,1,1.2,1.2A1.2,1.2,0,0,1,443.5,46Z"/><path class="cls-44" d="M784.2,56.9a1.4,1.4,0,0,1-1.1-.7,1.2,1.2,0,0,1,.5-1.6,16.2,16.2,0,0,0,2.9-1.9,1.4,1.4,0,0,1,1.7.3,1.2,1.2,0,0,1-.2,1.7l-3.2,2Z"/><path class="cls-45" d="M205.2,420.7a31.8,31.8,0,0,1,35.6,27.4,30.9,30.9,0,0,1-2.5,17.1l9.2,15.7L227,478.6a29.9,29.9,0,0,1-13.5,5.1,31.8,31.8,0,1,1-8.3-63Z"/><path class="cls-11" d="M191.5,444.2a10.2,10.2,0,0,1,11.2-4.7c4.9,1.2,6.9,6.2,7.1,6.8v0c.2-.6,2-5.6,6.9-7a10,10,0,0,1,11.3,4.4c3.5,6.2-3.6,14.1-4.4,15-4.8,5.4-11.3,6.3-13.6,6.6h-.3a20.9,20.9,0,0,1-13.4-6.2C195.5,458.2,188.2,450.6,191.5,444.2Z"/><path class="cls-45" d="M1207.1,264.9h-79.4a14.7,14.7,0,0,0-14.7,14.7v39.2a14.7,14.7,0,0,0,14.7,14.7v11.6l14.3-11.6h65.1a14.7,14.7,0,0,0,14.7-14.7V279.6A14.7,14.7,0,0,0,1207.1,264.9Z"/><path class="cls-11" d="M1123.3,297.5a6,6,0,0,1,6-6,5.9,5.9,0,0,1,5.9,6,5.8,5.8,0,0,1-5.9,5.9A5.9,5.9,0,0,1,1123.3,297.5Z"/><path class="cls-11" d="M1142.4,297.5a5.9,5.9,0,0,1,5.9-6,6,6,0,0,1,6,6,5.9,5.9,0,0,1-6,5.9A5.8,5.8,0,0,1,1142.4,297.5Z"/><path class="cls-11" d="M1161.4,297.5a6,6,0,0,1,12,0,6,6,0,0,1-12,0Z"/><circle class="cls-11" cx="1186.5" cy="297.2" r="6"/><path class="cls-11" d="M1199.6,297.2a5.8,5.8,0,0,1,5.9-5.9,5.9,5.9,0,0,1,6,5.9,6,6,0,0,1-6,6A5.9,5.9,0,0,1,1199.6,297.2Z"/><path class="cls-6" d="M973.2,175.8a1.9,1.9,0,0,1-.7-1.2,1.6,1.6,0,0,1,.7-1.7l5-3.9a1.9,1.9,0,0,1,1.8-.3,1.8,1.8,0,0,1,1.1,1.4l.9,6.4a1.9,1.9,0,0,1-.6,1.7,1.9,1.9,0,0,1-1.9.2l-5.9-2.4Zm6.3-5.7h-.4l-5,3.9c-.2.2-.2.3-.2.4l.3.3,5.9,2.4c.2.1.3,0,.4-.1a.4.4,0,0,0,.1-.3l-.9-6.4A.2.2,0,0,0,979.5,170.1Z"/><path class="cls-6" d="M141.8,542a1.4,1.4,0,0,1-.7-1.2,1.7,1.7,0,0,1,.7-1.7l5-3.9a1.8,1.8,0,0,1,2.9,1.2l.9,6.3a1.8,1.8,0,0,1-2.5,1.9l-5.9-2.3Zm6.3-5.7h-.4l-5.1,4a.5.5,0,0,0-.1.3c0,.1.1.3.2.3l6,2.4c.2.1.3,0,.4,0s.1-.2.1-.4l-.9-6.3C148.3,536.4,148.2,536.4,148.1,536.3Z"/><path class="cls-2" d="M858.4,262.4a4.5,4.5,0,1,1,4.5-4.5A4.5,4.5,0,0,1,858.4,262.4Zm0-7.6a3.1,3.1,0,1,0,3.1,3.1A3.1,3.1,0,0,0,858.4,254.8Z"/><path class="cls-2" d="M150.9,272.4a4.6,4.6,0,0,1-4.5-4.6,4.5,4.5,0,0,1,9,0A4.6,4.6,0,0,1,150.9,272.4Zm0-7.7a3.1,3.1,0,1,0,3.1,3.1A3.1,3.1,0,0,0,150.9,264.7Z"/><path class="cls-2" d="M1200.3,494.7a4.6,4.6,0,0,1-4.5-4.6,4.5,4.5,0,0,1,4.5-4.5,4.6,4.6,0,0,1,4.6,4.5A4.7,4.7,0,0,1,1200.3,494.7Zm0-7.7a3.1,3.1,0,1,0,3.1,3.1A3.1,3.1,0,0,0,1200.3,487Z"/><path class="cls-6" d="M780.3,112.1c.3-.2.1-.7-.3-.8l-2.1-.3c-.1,0-.3-.1-.3-.2l-1-2c-.1-.3-.6-.3-.8,0l-1,1.9a.3.3,0,0,1-.3.3l-2.2.3c-.3,0-.5.5-.2.8l1.5,1.5c.1.1.2.3.1.4l-.3,2.1a.4.4,0,0,0,.6.5l1.9-1h.5l1.9,1.1a.6.6,0,0,0,.7-.5l-.4-2.2a.6.6,0,0,1,.1-.4Z"/><path class="cls-6" d="M211.2,358.9a.5.5,0,0,0-.2-.9l-2.1-.3a.5.5,0,0,1-.4-.2l-.9-2a.6.6,0,0,0-.9,0l-.9,1.9c-.1.2-.2.3-.4.3l-2.1.3c-.4,0-.5.5-.3.8l1.6,1.5a.6.6,0,0,1,.1.4l-.4,2.1a.5.5,0,0,0,.7.5l1.9-1h.4l1.9,1.1c.4.1.8-.1.7-.5l-.3-2.1a.4.4,0,0,1,.1-.5Z"/><path class="cls-6" d="M445,63.2a.5.5,0,0,0-.2-.8l-2.2-.3a.3.3,0,0,1-.3-.3l-1-1.9c-.1-.4-.6-.4-.8,0l-1,1.9c0,.1-.2.2-.3.2l-2.1.3c-.4.1-.6.6-.3.8l1.5,1.5c.1.2.2.3.1.5l-.3,2.1a.4.4,0,0,0,.6.5l2-1a.3.3,0,0,1,.4,0l1.9,1c.3.2.7-.1.7-.5l-.4-2.1a.4.4,0,0,1,.2-.4Z"/><path class="cls-6" d="M1214,397.1c.2-.3.1-.8-.3-.8l-2.1-.3-.4-.3-.9-1.9a.5.5,0,0,0-.9,0l-.9,1.9a.5.5,0,0,1-.4.2l-2.1.3a.5.5,0,0,0-.3.8l1.6,1.5a.6.6,0,0,1,.1.4l-.4,2.2c-.1.3.3.6.7.5l1.9-1a.3.3,0,0,1,.4,0l1.9,1a.5.5,0,0,0,.7-.5l-.3-2.1c-.1-.2,0-.3.1-.4Z"/></g></g></svg>